PathFileType	4	(X/Y/Z)	G:\Shared drives\HPL_Drive\Pi-Spi Study\20230118_AMCsubject1\Trimmed_left_horiz_add01_rotated.trc
DataRate	CameraRate	NumFrames	NumMarkers	Units	OrigDataRate	OrigDataStartFrame	OrigNumFrames
200.00	200.00	       4	35	mm	200.00	101	       200
Frame#	Time	C7			Sternum			r_AMC1			r_AMC2			r_AMC3			l_AMC1			l_AMC2			l_AMC3			PX			T8			r_humerous			r_elbow_medial			r_elbow_lateral			r_forearm			r_wrist_radius			r_wrist_ulna			r_MCP_1			r_MCP_3			l_humerous			l_elbow_medial			l_elbow_lateral			l_forearm			l_wrist_radius			l_wrist_ulna			l_MCP_1			l_MCP_3			r_ASIS			r_PSIS			l_ASIS			l_PSIS			r_IC			l_IC			TS			AI			AA			
		X1	Y1	Z1	X2	Y2	Z2	X3	Y3	Z3	X4	Y4	Z4	X5	Y5	Z5	X6	Y6	Z6	X7	Y7	Z7	X8	Y8	Z8	X9	Y9	Z9	X10	Y10	Z10	X11	Y11	Z11	X12	Y12	Z12	X13	Y13	Z13	X14	Y14	Z14	X15	Y15	Z15	X16	Y16	Z16	X17	Y17	Z17	X18	Y18	Z18	X19	Y19	Z19	X20	Y20	Z20	X21	Y21	Z21	X22	Y22	Z22	X23	Y23	Z23	X24	Y24	Z24	X25	Y25	Z25	X26	Y26	Z26	X27	Y27	Z27	X28	Y28	Z28	X29	Y29	Z29	X30	Y30	Z30	X31	Y31	Z31	X32	Y32	Z32	X33	Y33	Z33	X34	Y34	Z34	X35	Y35	Z35	

101	0.5	179.7642	1368.082	-254.3706	315.5154	1321.3834	-227.4541	179.3418	1324.4524	-85.0309	213.0194	1331.4888	-49.0981	231.1246	1366.2047	-72.4424	235.9863	1341.9537	-408.0956	281.3656	1364.3804	-417.85	270.8019	1387.9734	-371.6258	394.0272	1132.7455	-215.0887	160.6968	1189.5314	-252.0029	297.6593	1149.5603	-27.3422	228.4188	1006.2322	-50.7401	249.3153	1016.6883	12.0075	305.9046	862.1313	29.6057	354.3193	799.4854	6.2977	308.6383	793.0739	29.6113	377.8112	717.1494	16.4602	330.9404	713.0838	36.0068	420.3501	1329.9475	-297.2657	530.4703	1239.055	-263.7077	557.1916	1281.9753	-277.8567	674.5857	1310.0323	-168.1958	712.1618	1327.1523	-102.5936	721.9461	1285.345	-108.4494	771.4181	1338.344	-53.081	777.6034	1295.5187	-53.2791	386.7497	907.0317	-88.599	192.0536	928.8498	-155.6312	367.1351	894.4977	-345.072	184.4702	922.7001	-259.0456	307.9811	971.9777	-54.4519	276.9807	940.1737	-377.5598	146.9114	1296.8523	-387.4805	170.0948	1200.2297	-403.8215	245.0372	1340.3166	-475.4307
102	0.505	179.8097	1368.0898	-254.3357	315.57	1321.374	-227.4555	179.3687	1324.4592	-85.0236	213.0903	1331.4383	-49.1248	231.1793	1366.1951	-72.433	236.0119	1341.9723	-408.0833	281.4532	1364.2936	-417.8346	270.9151	1388.0532	-371.5735	394.0433	1132.7285	-215.1174	160.7115	1189.5334	-252.0126	297.7047	1149.5577	-27.3449	228.4675	1006.2239	-50.7563	249.413	1016.6627	11.9755	305.9764	862.113	29.6255	354.382	799.5035	6.264	308.6952	793.0771	29.6193	377.9315	717.1476	16.3812	330.9923	713.1111	35.9743	420.4094	1329.9752	-297.2542	530.5134	1239.0735	-263.7237	557.2162	1282.0565	-277.876	674.6556	1310.0188	-168.2281	712.1486	1327.2186	-102.5592	722.0112	1285.3721	-108.4619	771.4164	1338.3904	-53.078	777.598	1295.566	-53.2612	386.8094	907.0305	-88.6471	192.0721	928.8629	-155.5834	367.1337	894.4883	-345.0608	184.5181	922.6945	-259.0281	308.0166	971.929	-54.4559	277.0177	940.1718	-377.5563	146.9639	1296.8669	-387.4925	170.1389	1200.2689	-403.8329	245.1031	1340.3293	-475.4455
103	0.51	179.8292	1368.0895	-254.3402	315.6045	1321.4126	-227.4298	179.3955	1324.4491	-85.0165	213.1661	1331.3977	-49.0581	231.1894	1366.2224	-72.4218	236.0527	1341.9481	-408.0813	281.5023	1364.3158	-417.826	270.8333	1388.0248	-371.6512	394.0697	1132.7467	-215.1023	160.7397	1189.5399	-252.0073	297.7707	1149.5437	-27.3705	228.5203	1006.243	-50.7473	249.4696	1016.6753	11.9823	306.0335	862.1238	29.6141	354.46	799.5178	6.235	308.7736	793.1086	29.6278	378.0754	717.0914	16.3794	331.046	713.123	36.0133	420.437	1330.0022	-297.2475	530.5403	1239.1036	-263.731	557.2891	1282.0001	-277.8426	674.6817	1310.0183	-168.2143	712.1975	1327.1797	-102.5647	721.9869	1285.4453	-108.43	771.4747	1338.3359	-53.0408	777.642	1295.5974	-53.2571	386.8195	907.0289	-88.6583	192.111	928.8522	-155.6054	367.148	894.5065	-345.0629	184.534	922.6995	-259.0204	308.084	971.9083	-54.4315	277.0222	940.1607	-377.5339	147.0085	1296.8538	-387.5331	170.195	1200.2648	-403.8343	245.1321	1340.3337	-475.4457
104	0.515	179.8574	1368.0957	-254.3452	315.663	1321.4321	-227.4451	179.4532	1324.4734	-85.0123	213.2212	1331.4276	-49.1233	231.2247	1366.214	-72.4024	236.0618	1341.9781	-408.0661	281.4502	1364.351	-417.7942	270.8658	1388.0179	-371.6333	394.1208	1132.7505	-215.1124	160.777	1189.5366	-252.0022	297.8056	1149.5863	-27.3704	228.5534	1006.2413	-50.7099	249.4929	1016.7198	12.0362	306.0963	862.1362	29.6217	354.5117	799.5186	6.2542	308.8503	793.0842	29.613	378.1204	717.0892	16.3737	331.202	713.0684	35.9904	420.4632	1330.0405	-297.2657	530.5773	1239.1494	-263.7699	557.3048	1282.0619	-277.8553	674.6918	1310.0601	-168.1881	712.2327	1327.1924	-102.5401	722.0278	1285.4781	-108.4401	771.475	1338.344	-53.0432	777.6871	1295.5563	-53.2451	386.8816	907.0105	-88.628	192.125	928.8638	-155.5712	367.1461	894.506	-345.0584	184.559	922.7122	-259.0014	308.1108	971.9622	-54.4399	277.0423	940.1589	-377.5287	147.0462	1296.8564	-387.5183	170.2404	1200.2467	-403.8394	245.1682	1340.3751	-475.4549
